<svg width="120" height="120" viewBox="0 0 120 120" fill="none" xmlns="http://www.w3.org/2000/svg" role="img" aria-labelledby="pom-title">
  <title id="pom-title">Pom tomato mascot</title>
  <path d="M58 18C63 8 75 5 85 10C78 12 74 17 73 24C82 19 94 21 101 29C88 28 79 32 73 40H47C41 32 32 28 19 29C26 21 38 19 47 24C46 17 42 12 35 10C45 5 57 8 62 18H58Z" fill="#557C38"></path>
  <circle cx="60" cy="67" r="42" fill="#D95F43"></circle>
  <circle cx="46" cy="58" r="6" fill="#2B1D15"></circle>
  <circle cx="74" cy="58" r="6" fill="#2B1D15"></circle>
  <path d="M47 77C53 84 67 84 73 77" stroke="#2B1D15" stroke-width="5" stroke-linecap="round"></path>
  <circle cx="40" cy="70" r="8" fill="#F08A6A" opacity="0.55"></circle>
  <circle cx="80" cy="70" r="8" fill="#F08A6A" opacity="0.55"></circle>
  <path d="M38 36C47 29 64 27 80 35" stroke="#8F3C2C" stroke-width="5" stroke-linecap="round" opacity="0.35"></path>
</svg>